<svg width="135" height="83" viewBox="0 0 135 83" fill="none" xmlns="http://www.w3.org/2000/svg">
<path d="M0.627875 0.0159998H11.8599C14.5799 0.0159998 17.1559 0.32 19.5879 0.927999C22.0519 1.536 24.1959 2.528 26.0199 3.904C27.8439 5.248 29.2839 7.008 30.3399 9.184C31.4279 11.36 31.9719 14 31.9719 17.104C31.9719 19.856 31.4439 22.288 30.3879 24.4C29.3639 26.48 27.9719 28.24 26.2119 29.68C24.4519 31.088 22.4199 32.16 20.1159 32.896C17.8119 33.632 15.3959 34 12.8679 34H0.627875V0.0159998ZM8.11588 27.088H12.0039C13.7319 27.088 15.3319 26.912 16.8039 26.56C18.3079 26.208 19.6039 25.632 20.6919 24.832C21.7799 24 22.6279 22.928 23.2359 21.616C23.8759 20.272 24.1959 18.64 24.1959 16.72C24.1959 15.056 23.8759 13.616 23.2359 12.4C22.6279 11.152 21.7959 10.128 20.7399 9.328C19.6839 8.528 18.4359 7.936 16.9959 7.552C15.5879 7.136 14.0999 6.928 12.5319 6.928H8.11588V27.088ZM37.3378 0.0159998H60.4258V6.928H44.8258V13.264H59.5618V20.176H44.8258V27.088H61.2898V34H37.3378V0.0159998ZM78.4681 0.0159998H84.6601L99.4441 34H90.9961L88.0681 26.8H74.8681L72.0361 34H63.7801L78.4681 0.0159998ZM81.3481 9.904L77.2201 20.464H85.5241L81.3481 9.904ZM102.862 0.0159998H114.094C116.814 0.0159998 119.39 0.32 121.822 0.927999C124.286 1.536 126.43 2.528 128.254 3.904C130.078 5.248 131.518 7.008 132.574 9.184C133.662 11.36 134.206 14 134.206 17.104C134.206 19.856 133.678 22.288 132.622 24.4C131.598 26.48 130.206 28.24 128.446 29.68C126.686 31.088 124.654 32.16 122.35 32.896C120.046 33.632 117.63 34 115.102 34H102.862V0.0159998ZM110.35 27.088H114.238C115.966 27.088 117.566 26.912 119.038 26.56C120.542 26.208 121.838 25.632 122.926 24.832C124.014 24 124.862 22.928 125.47 21.616C126.11 20.272 126.43 18.64 126.43 16.72C126.43 15.056 126.11 13.616 125.47 12.4C124.862 11.152 124.03 10.128 122.974 9.328C121.918 8.528 120.67 7.936 119.23 7.552C117.822 7.136 116.334 6.928 114.766 6.928H110.35V27.088Z" fill="#A52620"/>
<path d="M2.01069 48.016H14.6347C16.3947 48.016 18.0587 48.176 19.6267 48.496C21.1947 48.816 22.5547 49.376 23.7067 50.176C24.8907 50.944 25.8187 52 26.4907 53.344C27.1947 54.656 27.5467 56.32 27.5467 58.336C27.5467 60.32 27.2267 61.984 26.5867 63.328C25.9467 64.672 25.0667 65.744 23.9467 66.544C22.8267 67.344 21.4987 67.92 19.9627 68.272C18.4267 68.592 16.7627 68.752 14.9707 68.752H9.49869V82H2.01069V48.016ZM9.49869 62.416H14.4907C15.1627 62.416 15.8027 62.352 16.4107 62.224C17.0507 62.096 17.6107 61.888 18.0907 61.6C18.6027 61.28 19.0027 60.864 19.2907 60.352C19.6107 59.808 19.7707 59.136 19.7707 58.336C19.7707 57.472 19.5627 56.784 19.1467 56.272C18.7627 55.728 18.2507 55.312 17.6107 55.024C17.0027 54.736 16.3147 54.56 15.5467 54.496C14.7787 54.4 14.0427 54.352 13.3387 54.352H9.49869V62.416ZM30.4211 65.008C30.4211 62.288 30.8691 59.824 31.7651 57.616C32.6931 55.408 33.9731 53.536 35.6051 52C37.2371 50.432 39.1731 49.232 41.4131 48.4C43.6531 47.568 46.1011 47.152 48.7571 47.152C51.4131 47.152 53.8611 47.568 56.1011 48.4C58.3411 49.232 60.2771 50.432 61.9091 52C63.5411 53.536 64.8051 55.408 65.7011 57.616C66.6291 59.824 67.0931 62.288 67.0931 65.008C67.0931 67.728 66.6291 70.192 65.7011 72.4C64.8051 74.608 63.5411 76.496 61.9091 78.064C60.2771 79.6 58.3411 80.784 56.1011 81.616C53.8611 82.448 51.4131 82.864 48.7571 82.864C46.1011 82.864 43.6531 82.448 41.4131 81.616C39.1731 80.784 37.2371 79.6 35.6051 78.064C33.9731 76.496 32.6931 74.608 31.7651 72.4C30.8691 70.192 30.4211 67.728 30.4211 65.008ZM38.1971 65.008C38.1971 66.608 38.4371 68.08 38.9171 69.424C39.4291 70.736 40.1491 71.888 41.0771 72.88C42.0051 73.84 43.1091 74.592 44.3891 75.136C45.7011 75.68 47.1571 75.952 48.7571 75.952C50.3571 75.952 51.7971 75.68 53.0771 75.136C54.3891 74.592 55.5091 73.84 56.4371 72.88C57.3651 71.888 58.0691 70.736 58.5491 69.424C59.0611 68.08 59.3171 66.608 59.3171 65.008C59.3171 63.44 59.0611 61.984 58.5491 60.64C58.0691 59.296 57.3651 58.144 56.4371 57.184C55.5091 56.192 54.3891 55.424 53.0771 54.88C51.7971 54.336 50.3571 54.064 48.7571 54.064C47.1571 54.064 45.7011 54.336 44.3891 54.88C43.1091 55.424 42.0051 56.192 41.0771 57.184C40.1491 58.144 39.4291 59.296 38.9171 60.64C38.4371 61.984 38.1971 63.44 38.1971 65.008ZM70.3586 65.008C70.3586 62.288 70.8066 59.824 71.7026 57.616C72.6306 55.408 73.9106 53.536 75.5426 52C77.1746 50.432 79.1106 49.232 81.3506 48.4C83.5906 47.568 86.0386 47.152 88.6946 47.152C91.3506 47.152 93.7986 47.568 96.0386 48.4C98.2786 49.232 100.215 50.432 101.847 52C103.479 53.536 104.743 55.408 105.639 57.616C106.567 59.824 107.031 62.288 107.031 65.008C107.031 67.728 106.567 70.192 105.639 72.4C104.743 74.608 103.479 76.496 101.847 78.064C100.215 79.6 98.2786 80.784 96.0386 81.616C93.7986 82.448 91.3506 82.864 88.6946 82.864C86.0386 82.864 83.5906 82.448 81.3506 81.616C79.1106 80.784 77.1746 79.6 75.5426 78.064C73.9106 76.496 72.6306 74.608 71.7026 72.4C70.8066 70.192 70.3586 67.728 70.3586 65.008ZM78.1346 65.008C78.1346 66.608 78.3746 68.08 78.8546 69.424C79.3666 70.736 80.0866 71.888 81.0146 72.88C81.9426 73.84 83.0466 74.592 84.3266 75.136C85.6386 75.68 87.0946 75.952 88.6946 75.952C90.2946 75.952 91.7346 75.68 93.0146 75.136C94.3266 74.592 95.4466 73.84 96.3746 72.88C97.3026 71.888 98.0066 70.736 98.4866 69.424C98.9986 68.08 99.2546 66.608 99.2546 65.008C99.2546 63.44 98.9986 61.984 98.4866 60.64C98.0066 59.296 97.3026 58.144 96.3746 57.184C95.4466 56.192 94.3266 55.424 93.0146 54.88C91.7346 54.336 90.2946 54.064 88.6946 54.064C87.0946 54.064 85.6386 54.336 84.3266 54.88C83.0466 55.424 81.9426 56.192 81.0146 57.184C80.0866 58.144 79.3666 59.296 78.8546 60.64C78.3746 61.984 78.1346 63.44 78.1346 65.008ZM112.408 48.016H119.896V75.088H133.768V82H112.408V48.016Z" fill="white"/>
</svg>
