<svg width="120" height="30" viewBox="0 0 120 30" fill="none" xmlns="http://www.w3.org/2000/svg">
<path d="M52.058 11.985H54.83L59.672 24.873H56.99L55.928 21.795H50.96L49.898 24.873H47.216L52.058 11.985ZM55.136 19.563L53.984 16.341L53.516 14.775H53.372L52.904 16.341L51.752 19.563H55.136ZM67.1991 23.811H67.0551C66.8391 24.183 66.5031 24.501 66.0471 24.765C65.5911 25.029 65.0271 25.161 64.3551 25.161C63.7911 25.161 63.2511 25.047 62.7351 24.819C62.2311 24.579 61.7811 24.255 61.3851 23.847C61.0011 23.427 60.6951 22.929 60.4671 22.353C60.2391 21.777 60.1251 21.147 60.1251 20.463C60.1251 19.779 60.2391 19.149 60.4671 18.573C60.6951 17.997 61.0011 17.505 61.3851 17.097C61.7811 16.677 62.2311 16.353 62.7351 16.125C63.2511 15.885 63.7911 15.765 64.3551 15.765C65.0271 15.765 65.5911 15.897 66.0471 16.161C66.5031 16.425 66.8391 16.743 67.0551 17.115H67.1991L67.0551 15.855V11.985H69.4131V24.873H67.1991V23.811ZM64.8411 22.983C65.1531 22.983 65.4471 22.929 65.7231 22.821C66.0111 22.701 66.2631 22.533 66.4791 22.317C66.6951 22.101 66.8691 21.837 67.0011 21.525C67.1331 21.213 67.1991 20.859 67.1991 20.463C67.1991 20.067 67.1331 19.713 67.0011 19.401C66.8691 19.089 66.6951 18.825 66.4791 18.609C66.2631 18.393 66.0111 18.231 65.7231 18.123C65.4471 18.003 65.1531 17.943 64.8411 17.943C64.5291 17.943 64.2291 18.003 63.9411 18.123C63.6651 18.243 63.4191 18.411 63.2031 18.627C62.9871 18.843 62.8131 19.107 62.6811 19.419C62.5491 19.731 62.4831 20.079 62.4831 20.463C62.4831 20.847 62.5491 21.195 62.6811 21.507C62.8131 21.819 62.9871 22.083 63.2031 22.299C63.4191 22.515 63.6651 22.683 63.9411 22.803C64.2291 22.923 64.5291 22.983 64.8411 22.983ZM77.9042 23.811H77.7602C77.5442 24.183 77.2082 24.501 76.7522 24.765C76.2962 25.029 75.7322 25.161 75.0602 25.161C74.4962 25.161 73.9562 25.047 73.4402 24.819C72.9362 24.579 72.4862 24.255 72.0902 23.847C71.7062 23.427 71.4002 22.929 71.1722 22.353C70.9442 21.777 70.8302 21.147 70.8302 20.463C70.8302 19.779 70.9442 19.149 71.1722 18.573C71.4002 17.997 71.7062 17.505 72.0902 17.097C72.4862 16.677 72.9362 16.353 73.4402 16.125C73.9562 15.885 74.4962 15.765 75.0602 15.765C75.7322 15.765 76.2962 15.897 76.7522 16.161C77.2082 16.425 77.5442 16.743 77.7602 17.115H77.9042L77.7602 15.855V11.985H80.1182V24.873H77.9042V23.811ZM75.5462 22.983C75.8582 22.983 76.1522 22.929 76.4282 22.821C76.7162 22.701 76.9682 22.533 77.1842 22.317C77.4002 22.101 77.5742 21.837 77.7062 21.525C77.8382 21.213 77.9042 20.859 77.9042 20.463C77.9042 20.067 77.8382 19.713 77.7062 19.401C77.5742 19.089 77.4002 18.825 77.1842 18.609C76.9682 18.393 76.7162 18.231 76.4282 18.123C76.1522 18.003 75.8582 17.943 75.5462 17.943C75.2342 17.943 74.9342 18.003 74.6462 18.123C74.3702 18.243 74.1242 18.411 73.9082 18.627C73.6922 18.843 73.5182 19.107 73.3862 19.419C73.2542 19.731 73.1882 20.079 73.1882 20.463C73.1882 20.847 73.2542 21.195 73.3862 21.507C73.5182 21.819 73.6922 22.083 73.9082 22.299C74.1242 22.515 74.3702 22.683 74.6462 22.803C74.9342 22.923 75.2342 22.983 75.5462 22.983ZM86.3702 11.985H94.5422V14.289H88.8002V17.421H93.9662V19.725H88.8002V24.873H86.3702V11.985ZM97.2575 14.775C97.0535 14.775 96.8555 14.739 96.6635 14.667C96.4835 14.583 96.3215 14.475 96.1775 14.343C96.0455 14.199 95.9375 14.037 95.8535 13.857C95.7815 13.677 95.7455 13.479 95.7455 13.263C95.7455 13.047 95.7815 12.849 95.8535 12.669C95.9375 12.489 96.0455 12.333 96.1775 12.201C96.3215 12.057 96.4835 11.949 96.6635 11.877C96.8555 11.793 97.0535 11.751 97.2575 11.751C97.6775 11.751 98.0375 11.901 98.3375 12.201C98.6375 12.489 98.7875 12.843 98.7875 13.263C98.7875 13.683 98.6375 14.043 98.3375 14.343C98.0375 14.631 97.6775 14.775 97.2575 14.775ZM96.0875 24.873V16.053H98.4455V24.873H96.0875ZM100.602 24.873V11.985H102.96V24.873H100.602ZM104.979 16.053H107.193V17.205H107.337C107.613 16.773 107.985 16.425 108.453 16.161C108.933 15.897 109.461 15.765 110.037 15.765C110.709 15.765 111.273 15.921 111.729 16.233C112.185 16.545 112.509 16.929 112.701 17.385C112.977 16.941 113.367 16.563 113.871 16.251C114.375 15.927 114.987 15.765 115.707 15.765C116.247 15.765 116.715 15.855 117.111 16.035C117.507 16.203 117.831 16.443 118.083 16.755C118.347 17.067 118.545 17.445 118.677 17.889C118.809 18.321 118.875 18.795 118.875 19.311V24.873H116.517V19.743C116.517 18.543 116.025 17.943 115.041 17.943C114.729 17.943 114.453 18.015 114.213 18.159C113.973 18.291 113.769 18.477 113.601 18.717C113.445 18.945 113.319 19.221 113.223 19.545C113.139 19.869 113.097 20.217 113.097 20.589V24.873H110.739V19.743C110.739 18.543 110.223 17.943 109.191 17.943C108.891 17.943 108.627 18.015 108.399 18.159C108.171 18.291 107.979 18.477 107.823 18.717C107.667 18.945 107.547 19.221 107.463 19.545C107.379 19.869 107.337 20.217 107.337 20.589V24.873H104.979V16.053Z" fill="white"/>
<path d="M29.509 9.68198H4.8384V9.16438L29.5913 4.89297C29.6547 4.88301 29.7156 4.86052 29.7702 4.8268C29.8249 4.79308 29.8723 4.74881 29.9097 4.69657C29.947 4.64434 29.9736 4.58519 29.9879 4.52256C30.0022 4.45994 30.0038 4.3951 29.9928 4.33184L29.3059 0.40872C29.2959 0.345269 29.2734 0.284438 29.2397 0.229774C29.206 0.175109 29.1617 0.127708 29.1095 0.0903335C29.0572 0.0529593 28.9981 0.0263613 28.9355 0.012091C28.8728 -0.00217923 28.808 -0.003836 28.7447 0.00721745L0.402525 4.90265C0.276943 4.92797 0.165043 4.99855 0.0880952 5.10098C0.0157897 5.20716 -0.0135948 5.3368 0.00585978 5.46378L0.102607 6.01041C0.0390612 6.09221 0.00345268 6.19225 0.0010224 6.29581V29.5152C0.0010224 29.6435 0.0519875 29.7666 0.142706 29.8573C0.233424 29.948 0.356465 29.999 0.48476 29.999H29.509C29.6373 29.999 29.7604 29.948 29.8511 29.8573C29.9418 29.7666 29.9928 29.6435 29.9928 29.5152V10.1657C29.9928 10.0374 29.9418 9.91438 29.8511 9.82366C29.7604 9.73294 29.6373 9.68198 29.509 9.68198ZM0.968499 6.77955H3.87093V11.6169H0.968499V6.77955ZM1.73764 12.5844L0.968499 13.3535V12.5844H1.73764ZM0.968499 16.4543H29.0253V17.4218H0.968499V16.4543ZM0.968499 15.4868V14.5194H29.0253V15.4868H0.968499ZM21.4838 13.5519L24.3863 10.6495H27.8595L24.9571 13.5519H21.4838ZM20.1197 13.5519H16.6464L19.5489 10.6495H23.0221L20.1197 13.5519ZM15.2823 13.5519H11.8091L14.7115 10.6495H18.1847L15.2823 13.5519ZM10.4449 13.5519H6.97169L9.87412 10.6495H13.3474L10.4449 13.5519ZM26.3212 13.5519L29.0253 10.8478V13.5519H26.3212ZM8.50997 10.6495L5.60755 13.5519H2.13431L3.10178 12.5844H4.35466C4.48296 12.5844 4.606 12.5334 4.69672 12.4427C4.78744 12.352 4.8384 12.229 4.8384 12.1007V10.6495H8.50997ZM4.5143 5.84594L5.03674 5.08647L8.44709 4.49631L6.0284 7.97438L4.8384 8.18239V6.29581C4.83701 6.19664 4.80518 6.1003 4.7472 6.01983C4.68923 5.93936 4.60792 5.87865 4.5143 5.84594ZM20.2503 5.52183L16.8641 6.10715L19.2828 2.62908L22.6061 2.05827L20.2503 5.52183ZM23.917 1.83091L27.3032 1.24075L24.9571 4.70915L21.5709 5.29447L23.917 1.83091ZM15.5339 6.33451L12.1477 6.92467L14.5664 3.45143L17.9525 2.86127L15.5339 6.33451ZM10.7884 7.15687L7.40221 7.74219L9.8209 4.26895L13.2313 3.67879L10.7884 7.15687ZM26.297 4.48179L28.4738 1.26494L28.9576 4.02224L26.297 4.48179ZM3.70162 5.32834L3.35816 5.81207H1.05073V5.77821L3.70162 5.32834ZM0.968499 29.0315V18.3893H29.0253V29.0315H0.968499Z" fill="#CD2E71"/>
<path d="M1.93597 7.79541H2.90345V8.76289H1.93597V7.79541Z" fill="#CD2E71"/>
<path d="M1.93597 9.68188H2.90345V10.6494H1.93597V9.68188Z" fill="#CD2E71"/>
<path d="M6.77335 23.5216L7.32481 24.4407C7.36765 24.5129 7.42852 24.5727 7.50146 24.6143C7.5744 24.6558 7.65689 24.6776 7.74083 24.6776C7.82477 24.6776 7.90726 24.6558 7.9802 24.6143C8.05314 24.5727 8.11401 24.5129 8.15685 24.4407L8.70831 23.5216V26.129H9.67578V21.7753C9.67575 21.6694 9.64092 21.5663 9.57663 21.4821C9.51235 21.3978 9.42217 21.337 9.31996 21.309C9.21775 21.2809 9.10917 21.2873 9.0109 21.3269C8.91263 21.3666 8.83011 21.4375 8.77603 21.5286L7.74083 23.2556L6.70563 21.5286C6.65155 21.4375 6.56903 21.3666 6.47076 21.3269C6.37249 21.2873 6.26391 21.2809 6.1617 21.309C6.05949 21.337 5.96931 21.3978 5.90503 21.4821C5.84074 21.5663 5.80591 21.6694 5.80588 21.7753V26.129H6.77335V23.5216Z" fill="#CD2E71"/>
<path d="M12.3363 26.1291C12.7854 26.1291 13.216 25.9508 13.5335 25.6332C13.851 25.3157 14.0294 24.8851 14.0294 24.436V22.9848C14.0294 22.5358 13.851 22.1052 13.5335 21.7876C13.216 21.4701 12.7854 21.2917 12.3363 21.2917C11.8873 21.2917 11.4567 21.4701 11.1391 21.7876C10.8216 22.1052 10.6432 22.5358 10.6432 22.9848V24.436C10.6432 24.8851 10.8216 25.3157 11.1391 25.6332C11.4567 25.9508 11.8873 26.1291 12.3363 26.1291ZM11.6107 22.9848C11.6107 22.7924 11.6872 22.6078 11.8233 22.4717C11.9593 22.3357 12.1439 22.2592 12.3363 22.2592C12.5288 22.2592 12.7133 22.3357 12.8494 22.4717C12.9855 22.6078 13.0619 22.7924 13.0619 22.9848V24.436C13.0619 24.6285 12.9855 24.8131 12.8494 24.9491C12.7133 25.0852 12.5288 25.1617 12.3363 25.1617C12.1439 25.1617 11.9593 25.0852 11.8233 24.9491C11.6872 24.8131 11.6107 24.6285 11.6107 24.436V22.9848Z" fill="#CD2E71"/>
<path d="M21.2855 26.1291H23.7042V25.1617H21.7692V24.1942H23.7042V23.2267H21.7692V22.2592H23.7042V21.2917H21.2855C21.1572 21.2917 21.0342 21.3427 20.9434 21.4334C20.8527 21.5241 20.8018 21.6472 20.8018 21.7755V25.6454C20.8018 25.7737 20.8527 25.8967 20.9434 25.9874C21.0342 26.0782 21.1572 26.1291 21.2855 26.1291Z" fill="#CD2E71"/>
<path d="M16.0466 25.9114C16.0908 25.9773 16.1506 26.0312 16.2206 26.0686C16.2906 26.1059 16.3688 26.1254 16.4481 26.1254C16.5274 26.1254 16.6056 26.1059 16.6756 26.0686C16.7456 26.0312 16.8054 25.9773 16.8496 25.9114L17.8171 24.4602C17.87 24.3815 17.8986 24.289 17.8993 24.1942V21.2917H16.9318V24.0491L16.4481 24.7747L15.9644 24.0491V21.2917H14.9969V24.1942C14.9976 24.289 15.0262 24.3815 15.0791 24.4602L16.0466 25.9114Z" fill="#CD2E71"/>
<path d="M18.8668 21.2917H19.8343V26.1291H18.8668V21.2917Z" fill="#CD2E71"/>
<path d="M25.6392 19.3567H4.35468C4.22638 19.3567 4.10334 19.4077 4.01262 19.4984C3.92191 19.5891 3.87094 19.7121 3.87094 19.8404V27.5802C3.87094 27.7085 3.92191 27.8316 4.01262 27.9223C4.10334 28.013 4.22638 28.064 4.35468 28.064H25.6392C25.7675 28.064 25.8905 28.013 25.9812 27.9223C26.0719 27.8316 26.1229 27.7085 26.1229 27.5802V19.8404C26.1229 19.7121 26.0719 19.5891 25.9812 19.4984C25.8905 19.4077 25.7675 19.3567 25.6392 19.3567ZM25.1554 27.0965H4.83842V20.3242H25.1554V27.0965Z" fill="#CD2E71"/>
</svg>
