<svg width="133" height="40" viewBox="0 0 133 40" fill="none" xmlns="http://www.w3.org/2000/svg">
<path d="M54.896 12.0079H57.92V26.2639H65.144V28.9999H54.896V12.0079ZM66.5013 23.2399C66.5013 22.3279 66.6613 21.5039 66.9813 20.7679C67.3173 20.0159 67.7653 19.3759 68.3253 18.8479C68.8853 18.3199 69.5493 17.9119 70.3173 17.6239C71.0853 17.3359 71.9013 17.1919 72.7653 17.1919C73.6293 17.1919 74.4453 17.3359 75.2133 17.6239C75.9813 17.9119 76.6453 18.3199 77.2053 18.8479C77.7653 19.3759 78.2053 20.0159 78.5253 20.7679C78.8613 21.5039 79.0293 22.3279 79.0293 23.2399C79.0293 24.1519 78.8613 24.9839 78.5253 25.7359C78.2053 26.4719 77.7653 27.1039 77.2053 27.6319C76.6453 28.1599 75.9813 28.5679 75.2133 28.8559C74.4453 29.1439 73.6293 29.2879 72.7653 29.2879C71.9013 29.2879 71.0853 29.1439 70.3173 28.8559C69.5493 28.5679 68.8853 28.1599 68.3253 27.6319C67.7653 27.1039 67.3173 26.4719 66.9813 25.7359C66.6613 24.9839 66.5013 24.1519 66.5013 23.2399ZM69.3813 23.2399C69.3813 23.6879 69.4533 24.1199 69.5973 24.5359C69.7573 24.9519 69.9813 25.3199 70.2693 25.6399C70.5733 25.9599 70.9333 26.2159 71.3493 26.4079C71.7653 26.5999 72.2373 26.6959 72.7653 26.6959C73.2933 26.6959 73.7653 26.5999 74.1813 26.4079C74.5973 26.2159 74.9493 25.9599 75.2373 25.6399C75.5413 25.3199 75.7653 24.9519 75.9093 24.5359C76.0693 24.1199 76.1493 23.6879 76.1493 23.2399C76.1493 22.7919 76.0693 22.3599 75.9093 21.9439C75.7653 21.5279 75.5413 21.1599 75.2373 20.8399C74.9493 20.5199 74.5973 20.2639 74.1813 20.0719C73.7653 19.8799 73.2933 19.7839 72.7653 19.7839C72.2373 19.7839 71.7653 19.8799 71.3493 20.0719C70.9333 20.2639 70.5733 20.5199 70.2693 20.8399C69.9813 21.1599 69.7573 21.5279 69.5973 21.9439C69.4533 22.3599 69.3813 22.7919 69.3813 23.2399ZM93.5818 17.4799V27.9679C93.5818 29.0079 93.4538 29.9439 93.1978 30.7759C92.9418 31.6239 92.5418 32.3359 91.9978 32.9119C91.4698 33.5039 90.7978 33.9599 89.9818 34.2799C89.1658 34.5999 88.1978 34.7599 87.0778 34.7599C86.0058 34.7599 84.9898 34.6239 84.0298 34.3519C83.0698 34.0799 82.1818 33.5839 81.3658 32.8639L83.0938 30.5119C83.6698 31.0399 84.2698 31.4479 84.8938 31.7359C85.5178 32.0239 86.2378 32.1679 87.0538 32.1679C87.7418 32.1679 88.3178 32.0719 88.7818 31.8799C89.2618 31.6879 89.6378 31.4239 89.9098 31.0879C90.1978 30.7519 90.3978 30.3439 90.5098 29.8639C90.6378 29.3999 90.7018 28.8799 90.7018 28.3039V27.4639H90.6538C90.2378 28.0239 89.6858 28.4479 88.9978 28.7359C88.3098 29.0079 87.6058 29.1439 86.8858 29.1439C86.0218 29.1439 85.2378 28.9919 84.5338 28.6879C83.8298 28.3679 83.2218 27.9439 82.7098 27.4159C82.2138 26.8879 81.8298 26.2639 81.5578 25.5439C81.2858 24.8239 81.1498 24.0559 81.1498 23.2399C81.1498 22.3919 81.2778 21.5999 81.5338 20.8639C81.7898 20.1279 82.1658 19.4879 82.6618 18.9439C83.1578 18.3999 83.7498 17.9759 84.4378 17.6719C85.1418 17.3519 85.9418 17.1919 86.8378 17.1919C87.6538 17.1919 88.4138 17.3519 89.1178 17.6719C89.8218 17.9919 90.3818 18.5039 90.7978 19.2079H90.8458V17.4799H93.5818ZM87.4378 19.7839C86.9258 19.7839 86.4618 19.8719 86.0458 20.0479C85.6298 20.2079 85.2698 20.4399 84.9658 20.7439C84.6778 21.0319 84.4458 21.3919 84.2698 21.8239C84.1098 22.2399 84.0298 22.7039 84.0298 23.2159C84.0298 23.6799 84.1098 24.1119 84.2698 24.5119C84.4458 24.9119 84.6858 25.2639 84.9898 25.5679C85.2938 25.8719 85.6538 26.1119 86.0698 26.2879C86.4858 26.4639 86.9338 26.5519 87.4138 26.5519C87.9418 26.5519 88.4138 26.4639 88.8298 26.2879C89.2618 26.1119 89.6218 25.8799 89.9098 25.5919C90.2138 25.2879 90.4458 24.9279 90.6058 24.5119C90.7658 24.0959 90.8458 23.6479 90.8458 23.1679C90.8458 22.1599 90.5418 21.3439 89.9338 20.7199C89.3258 20.0959 88.4938 19.7839 87.4378 19.7839ZM96.2669 23.2399C96.2669 22.3279 96.4269 21.5039 96.7469 20.7679C97.0829 20.0159 97.5309 19.3759 98.0909 18.8479C98.6509 18.3199 99.3149 17.9119 100.083 17.6239C100.851 17.3359 101.667 17.1919 102.531 17.1919C103.395 17.1919 104.211 17.3359 104.979 17.6239C105.747 17.9119 106.411 18.3199 106.971 18.8479C107.531 19.3759 107.971 20.0159 108.291 20.7679C108.627 21.5039 108.795 22.3279 108.795 23.2399C108.795 24.1519 108.627 24.9839 108.291 25.7359C107.971 26.4719 107.531 27.1039 106.971 27.6319C106.411 28.1599 105.747 28.5679 104.979 28.8559C104.211 29.1439 103.395 29.2879 102.531 29.2879C101.667 29.2879 100.851 29.1439 100.083 28.8559C99.3149 28.5679 98.6509 28.1599 98.0909 27.6319C97.5309 27.1039 97.0829 26.4719 96.7469 25.7359C96.4269 24.9839 96.2669 24.1519 96.2669 23.2399ZM99.1469 23.2399C99.1469 23.6879 99.2189 24.1199 99.3629 24.5359C99.5229 24.9519 99.7469 25.3199 100.035 25.6399C100.339 25.9599 100.699 26.2159 101.115 26.4079C101.531 26.5999 102.003 26.6959 102.531 26.6959C103.059 26.6959 103.531 26.5999 103.947 26.4079C104.363 26.2159 104.715 25.9599 105.003 25.6399C105.307 25.3199 105.531 24.9519 105.675 24.5359C105.835 24.1199 105.915 23.6879 105.915 23.2399C105.915 22.7919 105.835 22.3599 105.675 21.9439C105.531 21.5279 105.307 21.1599 105.003 20.8399C104.715 20.5199 104.363 20.2639 103.947 20.0719C103.531 19.8799 103.059 19.7839 102.531 19.7839C102.003 19.7839 101.531 19.8799 101.115 20.0719C100.699 20.2639 100.339 20.5199 100.035 20.8399C99.7469 21.1599 99.5229 21.5279 99.3629 21.9439C99.2189 22.3599 99.1469 22.7919 99.1469 23.2399ZM122.003 28.9999H119.267V27.1519H119.219C118.947 27.7279 118.531 28.2319 117.971 28.6639C117.411 29.0799 116.651 29.2879 115.691 29.2879C114.923 29.2879 114.267 29.1679 113.723 28.9279C113.195 28.6719 112.763 28.3359 112.427 27.9199C112.091 27.4879 111.851 26.9999 111.707 26.4559C111.563 25.9119 111.491 25.3439 111.491 24.7519V17.4799H114.371V23.3119C114.371 23.6319 114.387 23.9919 114.419 24.3919C114.451 24.7759 114.531 25.1439 114.659 25.4959C114.803 25.8319 115.011 26.1199 115.283 26.3599C115.571 26.5839 115.971 26.6959 116.483 26.6959C116.963 26.6959 117.363 26.6159 117.683 26.4559C118.019 26.2959 118.291 26.0799 118.499 25.8079C118.723 25.5359 118.883 25.2239 118.979 24.8719C119.075 24.5199 119.123 24.1519 119.123 23.7679V17.4799H122.003V28.9999ZM123.929 19.9279V17.4799H126.305V14.1439H129.185V17.4799H132.353V19.9279H129.185V24.9679C129.185 25.5439 129.289 25.9999 129.497 26.3359C129.721 26.6719 130.153 26.8399 130.793 26.8399C131.049 26.8399 131.329 26.8159 131.633 26.7679C131.937 26.7039 132.177 26.6079 132.353 26.4799V28.9039C132.049 29.0479 131.673 29.1439 131.225 29.1919C130.793 29.2559 130.409 29.2879 130.073 29.2879C129.305 29.2879 128.673 29.1999 128.177 29.0239C127.697 28.8639 127.313 28.6159 127.025 28.2799C126.753 27.9279 126.561 27.4959 126.449 26.9839C126.353 26.4719 126.305 25.8799 126.305 25.2079V19.9279H123.929Z" fill="white"/>
<g clip-path="url(#clip0_30_15)">
<path d="M38.7489 18.7723H22.916C22.226 18.7723 21.666 18.2205 21.666 17.5405C21.666 16.8606 22.226 16.3087 22.916 16.3087H38.7489C39.4389 16.3087 39.9989 16.8606 39.9989 17.5405C39.9989 18.2205 39.4389 18.7723 38.7489 18.7723Z" fill="#D20000"/>
<path d="M32.4989 24.9314C32.1788 24.9314 31.859 24.8114 31.6155 24.5702C31.1272 24.0888 31.1272 23.3087 31.6155 22.8275L36.9821 17.539L31.6155 12.2503C31.1272 11.7691 31.1272 10.989 31.6155 10.5078C32.104 10.0264 32.8956 10.0264 33.3839 10.5078L39.6337 16.6669C40.122 17.1481 40.122 17.9282 39.6337 18.4094L33.3839 24.5684C33.1389 24.8114 32.819 24.9314 32.4989 24.9314Z" fill="#D20000"/>
<path d="M13.333 39.7132C12.9763 39.7132 12.6378 39.6638 12.2997 39.5604L2.26983 36.2673C0.905123 35.7976 0 34.5444 0 33.1436V3.5801C0 1.76847 1.49501 0.295166 3.33333 0.295166C3.68976 0.295166 4.02819 0.344487 4.36662 0.44794L14.3962 3.74099C15.7612 4.21074 16.666 5.4639 16.666 6.86473V36.4282C16.666 38.2399 15.1713 39.7132 13.333 39.7132ZM3.33333 2.75879C2.87497 2.75879 2.49992 3.12839 2.49992 3.5801V33.1436C2.49992 33.4933 2.73826 33.8184 3.07821 33.9351L13.0611 37.2134C13.1328 37.2363 13.2262 37.2495 13.333 37.2495C13.7914 37.2495 14.1661 36.8799 14.1661 36.4282V6.86473C14.1661 6.51498 13.9278 6.18988 13.5878 6.07319L3.60493 2.79488C3.53321 2.77202 3.43983 2.75879 3.33333 2.75879Z" fill="#D20000"/>
<path d="M25.4157 13.4346C24.7257 13.4346 24.1657 12.8827 24.1657 12.2028V4.81191C24.1657 3.68024 23.231 2.75879 22.0827 2.75879H3.33324C2.64326 2.75879 2.08328 2.20694 2.08328 1.52698C2.08328 0.847016 2.64326 0.295166 3.33324 0.295166H22.0827C24.611 0.295166 26.6656 2.32032 26.6656 4.81191V12.2028C26.6656 12.8827 26.1057 13.4346 25.4157 13.4346Z" fill="#D20000"/>
<path d="M22.0827 34.7859H15.416C14.7261 34.7859 14.1661 34.2341 14.1661 33.5541C14.1661 32.8741 14.7261 32.3223 15.416 32.3223H22.0827C23.231 32.3223 24.1658 31.4008 24.1658 30.2692V22.8783C24.1658 22.1983 24.7257 21.6465 25.4157 21.6465C26.1057 21.6465 26.6657 22.1983 26.6657 22.8783V30.2692C26.6657 32.7607 24.611 34.7859 22.0827 34.7859Z" fill="#D20000"/>
</g>
<defs>
<clipPath id="clip0_30_15">
<rect width="40" height="39.4192" fill="white" transform="translate(0 0.293945)"/>
</clipPath>
</defs>
</svg>
